<svg width="52" height="52" viewBox="0 0 52 52" fill="none" xmlns="http://www.w3.org/2000/svg">
<circle cx="26" cy="26" r="26" fill="#4DC66F" fill-opacity="0.4"/>
<path d="M31.5016 27.6664L32.1355 23.5992H28.1739V21.0168C28.1485 20.7504 28.1773 20.4817 28.2587 20.2263C28.34 19.9708 28.4722 19.7336 28.6478 19.5284C28.8233 19.3231 29.0387 19.1539 29.2814 19.0304C29.5242 18.9069 29.7896 18.8317 30.0623 18.8089C30.2113 18.7894 30.3622 18.7894 30.5112 18.8089H32.3335V15.2841C31.2673 15.1184 30.1908 15.0235 29.1115 15C25.8102 15 23.6578 16.9626 23.6578 20.4875V23.5863H20V27.6664H23.6578V37.5051H28.1607V27.6664H31.5016Z" fill="#4DC66F"/>
</svg>
