<svg width="52" height="52" viewBox="0 0 52 52" fill="none" xmlns="http://www.w3.org/2000/svg">
<circle cx="26" cy="26" r="26" fill="#4DC66F" fill-opacity="0.4"/>
<path d="M25.8812 20.3582C24.8365 20.3582 23.8153 20.6611 22.9467 21.2286C22.078 21.7961 21.401 22.6027 21.0012 23.5464C20.6015 24.4901 20.4968 25.5285 20.7007 26.5304C20.9045 27.5322 21.4075 28.4525 22.1462 29.1748C22.8849 29.8971 23.8261 30.389 24.8507 30.5882C25.8753 30.7875 26.9374 30.6852 27.9025 30.2943C28.8677 29.9034 29.6927 29.2415 30.2731 28.3921C30.8535 27.5428 31.1632 26.5443 31.1632 25.5228C31.1632 24.1531 30.6068 22.8394 29.6162 21.8708C28.6256 20.9023 27.2821 20.3582 25.8812 20.3582ZM25.8812 28.8798C25.2074 28.8798 24.5487 28.6845 23.9884 28.3184C23.4282 27.9524 22.9915 27.4321 22.7336 26.8234C22.4758 26.2147 22.4083 25.5449 22.5397 24.8987C22.6712 24.2526 22.9957 23.659 23.4721 23.1931C23.9486 22.7272 24.5557 22.41 25.2165 22.2814C25.8774 22.1529 26.5625 22.2189 27.185 22.471C27.8075 22.7231 28.3396 23.1501 28.714 23.6979C29.0883 24.2457 29.2881 24.8898 29.2881 25.5486C29.2899 25.9866 29.203 26.4205 29.0324 26.8254C28.8618 27.2304 28.6109 27.5983 28.2942 27.908C27.9775 28.2176 27.6012 28.4629 27.187 28.6297C26.7729 28.7965 26.3291 28.8816 25.8812 28.8798Z" fill="#4DC66F"/>
<path d="M30.1067 36.1107H21.4837C19.7641 36.1107 18.1149 35.4428 16.899 34.2539C15.6831 33.0649 15 31.4524 15 29.771V21.3397C15 19.6583 15.6831 18.0458 16.899 16.8568C18.1149 15.6679 19.7641 15 21.4837 15H30.1067C31.816 15.017 33.4496 15.692 34.6534 16.8787C35.8572 18.0654 36.5342 19.6682 36.5376 21.3397V29.771C36.5376 31.4435 35.8618 33.0483 34.6573 34.2357C33.4527 35.4231 31.8171 36.0971 30.1067 36.1107ZM21.4837 16.9884C20.3034 16.9884 19.1715 17.4468 18.337 18.2629C17.5024 19.0789 17.0336 20.1856 17.0336 21.3397V29.771C17.0336 30.3424 17.1486 30.9083 17.3723 31.4362C17.5959 31.9641 17.9237 32.4438 18.337 32.8478C18.7502 33.2519 19.2408 33.5724 19.7807 33.7911C20.3206 34.0097 20.8993 34.1223 21.4837 34.1223H30.1067C30.6911 34.1223 31.2697 34.0097 31.8096 33.7911C32.3496 33.5724 32.8401 33.2519 33.2534 32.8478C33.6666 32.4438 33.9944 31.9641 34.218 31.4362C34.4417 30.9083 34.5568 30.3424 34.5568 29.771V21.3397C34.5568 20.1856 34.0879 19.0789 33.2534 18.2629C32.4188 17.4468 31.2869 16.9884 30.1067 16.9884H21.4837Z" fill="#4DC66F"/>
</svg>
