<svg width="52" height="52" viewBox="0 0 52 52" fill="none" xmlns="http://www.w3.org/2000/svg">
<circle cx="26" cy="26" r="26" fill="#4DC66F" fill-opacity="0.4"/>
<path d="M36.2016 19.931C35.5416 20.204 34.8496 20.3949 34.1416 20.4991C34.4716 20.4991 34.9596 19.8535 35.1576 19.6211C35.4586 19.2613 35.6865 18.8496 35.8315 18.4074C35.8315 18.4074 35.8315 18.3299 35.8315 18.3041C35.8155 18.295 35.7976 18.2902 35.7786 18.2902C35.7596 18.2902 35.7416 18.295 35.7256 18.3041C34.9566 18.702 34.1406 19.0056 33.2956 19.2079C33.2706 19.224 33.2406 19.2326 33.2106 19.2326C33.1796 19.2326 33.1495 19.224 33.1245 19.2079C33.0605 19.1327 32.9895 19.0636 32.9135 19.0013C32.5595 18.7095 32.1636 18.4702 31.7376 18.2912C31.1636 18.0687 30.5455 17.9717 29.9285 18.0071C29.3285 18.0485 28.7446 18.2111 28.2126 18.4848C27.6806 18.7578 27.2095 19.1307 26.8256 19.5823C26.4366 20.0609 26.1575 20.6158 26.0065 21.2092C25.8875 21.7714 25.8875 22.3514 26.0065 22.9136C26.0065 23.0039 26.0066 23.0169 25.9146 23.0039C22.6836 22.6821 19.6916 21.1898 17.5296 18.8206C17.4236 18.7173 17.3706 18.7173 17.2916 18.8206C16.8606 19.6048 16.6986 20.5035 16.8296 21.3844C16.9606 22.2653 17.3766 23.0819 18.0176 23.7141C18.1766 23.8561 18.3476 24.011 18.5326 24.153C17.9716 24.1124 17.4236 23.9633 16.9216 23.7141C16.8296 23.6495 16.7766 23.7141 16.7636 23.7916C16.7506 23.9462 16.7506 24.1017 16.7636 24.2563C16.8626 24.9919 17.1596 25.6886 17.6236 26.2759C18.0876 26.8631 18.7016 27.3201 19.4046 27.6005C19.5806 27.6657 19.7616 27.7175 19.9456 27.7554C19.4206 27.8392 18.8856 27.8392 18.3606 27.7554C18.2426 27.7554 18.2025 27.7554 18.2425 27.8974C18.5135 28.5886 18.9606 29.2011 19.5406 29.6775C20.1196 30.154 20.8136 30.4789 21.5566 30.6218H22.0186C21.3726 31.1903 20.5926 31.5939 19.7476 31.7968C18.6436 32.1795 17.4686 32.3291 16.3006 32.2358C16.1166 32.2358 16.0766 32.2358 16.0236 32.2358C15.9706 32.2358 16.0236 32.3003 16.0236 32.352C16.2586 32.5021 16.5006 32.64 16.7496 32.7651C17.4786 33.151 18.2495 33.4543 19.0475 33.669C21.0996 34.2673 23.2756 34.3307 25.3606 33.8528C27.4456 33.3749 29.3666 32.3724 30.9326 30.9446C32.0586 29.747 32.9296 28.3429 33.4966 26.8136C34.0626 25.2843 34.3136 23.6603 34.2336 22.0356C34.2336 21.9064 34.3785 21.8419 34.4715 21.7773C35.0875 21.3018 35.6346 20.7457 36.0956 20.1246C36.1636 20.0348 36.2006 19.9263 36.2016 19.8147C36.2016 19.8147 36.2806 19.8922 36.2016 19.931Z" fill="#4DC66F"/>
</svg>
